<svg width="27" height="27" viewBox="0 0 27 27" fill="none" xmlns="http://www.w3.org/2000/svg">
<path d="M4.75017 16H21.1698C22.4359 16 23.0689 16 23.5728 15.764C24.0167 15.556 24.3897 15.2222 24.6454 14.8039C24.9356 14.3292 25.0056 13.7 25.1454 12.4417L25.8766 5.86043C25.9193 5.4761 25.9407 5.28394 25.8789 5.1352C25.8246 5.00457 25.7276 4.89621 25.6038 4.82785C25.4628 4.75 25.2694 4.75 24.8827 4.75H4.12517M1 1H2.56055C2.89133 1 3.05672 1 3.18611 1.06291C3.30002 1.11828 3.39442 1.20697 3.4568 1.3172C3.52765 1.44242 3.53797 1.60749 3.5586 1.93762L4.6914 20.0624C4.71203 20.3925 4.72235 20.5576 4.7932 20.6828C4.85558 20.793 4.94998 20.8817 5.06389 20.9371C5.19328 21 5.35867 21 5.68945 21H22.25M7.875 25.375H7.8875M19.125 25.375H19.1375M8.5 25.375C8.5 25.7202 8.22018 26 7.875 26C7.52982 26 7.25 25.7202 7.25 25.375C7.25 25.0298 7.52982 24.75 7.875 24.75C8.22018 24.75 8.5 25.0298 8.5 25.375ZM19.75 25.375C19.75 25.7202 19.4702 26 19.125 26C18.7798 26 18.5 25.7202 18.5 25.375C18.5 25.0298 18.7798 24.75 19.125 24.75C19.4702 24.75 19.75 25.0298 19.75 25.375Z" stroke="#344054" stroke-width="2" stroke-linecap="round" stroke-linejoin="round"/>
</svg>
