<svg width="19" height="19" viewBox="0 0 19 19" fill="none" xmlns="http://www.w3.org/2000/svg">
<path fill-rule="evenodd" clip-rule="evenodd" d="M0.849609 9.54639C0.849609 5.95125 0.849609 4.15368 1.7063 2.85894C2.08886 2.28078 2.584 1.78563 3.16216 1.40308C4.4569 0.546387 6.25447 0.546387 9.84961 0.546387C13.4447 0.546387 15.2423 0.546387 16.5371 1.40308C17.1152 1.78563 17.6104 2.28078 17.9929 2.85894C18.8496 4.15368 18.8496 5.95125 18.8496 9.54639C18.8496 13.1415 18.8496 14.9391 17.9929 16.2338C17.6104 16.812 17.1152 17.3071 16.5371 17.6897C15.2423 18.5464 13.4447 18.5464 9.84961 18.5464C6.25447 18.5464 4.4569 18.5464 3.16216 17.6897C2.584 17.3071 2.08886 16.812 1.7063 16.2338C0.849609 14.9391 0.849609 13.1415 0.849609 9.54639ZM14.5089 9.54661C14.5089 12.1199 12.4228 14.206 9.84945 14.206C7.27613 14.206 5.19004 12.1199 5.19004 9.54661C5.19004 6.97329 7.27613 4.88721 9.84945 4.88721C12.4228 4.88721 14.5089 6.97329 14.5089 9.54661ZM9.84945 12.6296C11.5521 12.6296 12.9325 11.2493 12.9325 9.54661C12.9325 7.84392 11.5521 6.46361 9.84945 6.46361C8.14675 6.46361 6.76645 7.84392 6.76645 9.54661C6.76645 11.2493 8.14675 12.6296 9.84945 12.6296ZM14.6929 5.74794C15.2975 5.74794 15.7877 5.25777 15.7877 4.65311C15.7877 4.04846 15.2975 3.55829 14.6929 3.55829C14.0882 3.55829 13.5981 4.04846 13.5981 4.65311C13.5981 5.25777 14.0882 5.74794 14.6929 5.74794Z" fill="#2C1C5F"/>
</svg>
