<svg width="19" height="19" viewBox="0 0 19 19" fill="none" xmlns="http://www.w3.org/2000/svg">
<path d="M0.849609 3.46644C0.849609 2.88923 1.05232 2.41304 1.45772 2.03787C1.86312 1.66268 2.39016 1.4751 3.0388 1.4751C3.67587 1.4751 4.1913 1.65979 4.58513 2.02921C4.99053 2.41016 5.19324 2.90654 5.19324 3.51839C5.19324 4.0725 4.99633 4.53425 4.6025 4.90367C4.19711 5.28462 3.66428 5.4751 3.00405 5.4751H2.98668C2.3496 5.4751 1.83417 5.28462 1.44034 4.90367C1.04651 4.52272 0.849609 4.04363 0.849609 3.46644ZM1.07548 18.6179V7.05085H4.93262V18.6179H1.07548ZM7.06969 18.6179H10.9268V12.1591C10.9268 11.755 10.9732 11.4433 11.0658 11.224C11.228 10.8315 11.4741 10.4996 11.8042 10.2283C12.1344 9.95705 12.5484 9.82141 13.0465 9.82141C14.3438 9.82141 14.9925 10.693 14.9925 12.4361V18.6179H18.8496V11.9859C18.8496 10.2774 18.4442 8.98159 17.6334 8.09847C16.8226 7.21535 15.7512 6.7738 14.4191 6.7738C12.9249 6.7738 11.7608 7.41449 10.9268 8.69587V8.73051H10.9095L10.9268 8.69587V7.05085H7.06969C7.09285 7.42026 7.10444 8.56888 7.10444 10.4967C7.10444 12.4246 7.09285 15.1316 7.06969 18.6179Z" fill="#2C1C5F"/>
</svg>
