<svg width="30" height="30" viewBox="0 0 30 30" fill="none" xmlns="http://www.w3.org/2000/svg">
<g id="pdf-document-svgrepo-com 1">
<g id="Group">
<path id="Vector" d="M4.26562 0C2.95312 0 1.875 1.07812 1.875 2.39062V27.6094C1.875 28.9219 2.95312 30 4.26562 30H25.7344C27.0469 30 28.125 28.9219 28.125 27.6094V9.51562L19.2656 0H4.26562Z" fill="#8C181A"/>
<path id="Vector_2" d="M28.125 9.5625V10.0312H22.125C22.125 10.0312 19.1719 9.42188 19.2656 6.89062C19.2656 6.89062 19.3594 9.5625 22.0781 9.5625H28.125Z" fill="#6B0D12"/>
<path id="Vector_3" opacity="0.5" d="M19.2656 0V6.84375C19.2656 7.64062 19.7813 9.5625 22.125 9.5625H28.125L19.2656 0Z" fill="white"/>
</g>
<path id="Vector_4" d="M8.85937 22.9688H7.3125V24.8906C7.3125 25.0781 7.17187 25.2188 6.9375 25.2188C6.75 25.2188 6.60938 25.0781 6.60938 24.8906V20.1094C6.60938 19.8281 6.84375 19.5938 7.125 19.5938H8.85937C9.98438 19.5938 10.6406 20.3906 10.6406 21.2813C10.6406 22.2188 9.98438 22.9688 8.85937 22.9688ZM8.8125 20.2031H7.3125V22.3594H8.8125C9.46875 22.3594 9.9375 21.9375 9.9375 21.2813C9.9375 20.625 9.46875 20.2031 8.8125 20.2031ZM13.6875 25.2188H12.2813C12 25.2188 11.7656 24.9844 11.7656 24.7031V20.1094C11.7656 19.8281 12 19.5938 12.2813 19.5938H13.6875C15.4219 19.5938 16.5938 20.8125 16.5938 22.4062C16.5938 24 15.4688 25.2188 13.6875 25.2188ZM13.6875 20.2031H12.4688V24.5625H13.6875C15.0469 24.5625 15.8438 23.5781 15.8438 22.3594C15.8906 21.1875 15.0938 20.2031 13.6875 20.2031ZM21.3281 20.2031H18.6094V22.0313H21.2813C21.4688 22.0313 21.5625 22.1719 21.5625 22.3594C21.5625 22.5469 21.4219 22.6406 21.2813 22.6406H18.6094V24.8906C18.6094 25.0781 18.4688 25.2188 18.2344 25.2188C18.0469 25.2188 17.9063 25.0781 17.9063 24.8906V20.1094C17.9063 19.8281 18.1406 19.5938 18.4219 19.5938H21.3281C21.5156 19.5938 21.6094 19.7344 21.6094 19.9219C21.6562 20.0625 21.5156 20.2031 21.3281 20.2031Z" fill="white"/>
</g>
</svg>
