<svg width="18" height="18" viewBox="0 0 18 18" fill="none" xmlns="http://www.w3.org/2000/svg">
<path d="M6.33333 9H2.42222C1.9244 9 1.67549 9 1.48534 9.09688C1.31809 9.1821 1.1821 9.31809 1.09688 9.48534C1 9.67549 1 9.9244 1 10.4222V15.5778C1 16.0756 1 16.3245 1.09688 16.5147C1.1821 16.6819 1.31809 16.8179 1.48534 16.9031C1.67549 17 1.9244 17 2.42222 17H6.33333M6.33333 17H11.6667M6.33333 17L6.33333 5.97778C6.33333 5.47995 6.33333 5.23104 6.43022 5.0409C6.51544 4.87364 6.65142 4.73766 6.81868 4.65244C7.00882 4.55556 7.25773 4.55556 7.75556 4.55556H10.2444C10.7423 4.55556 10.9912 4.55556 11.1813 4.65244C11.3486 4.73766 11.4846 4.87364 11.5698 5.0409C11.6667 5.23104 11.6667 5.47995 11.6667 5.97778V17M11.6667 17H15.5778C16.0756 17 16.3245 17 16.5147 16.9031C16.6819 16.8179 16.8179 16.6819 16.9031 16.5147C17 16.3245 17 16.0756 17 15.5778V2.42222C17 1.9244 17 1.67549 16.9031 1.48534C16.8179 1.31809 16.6819 1.1821 16.5147 1.09688C16.3245 1 16.0756 1 15.5778 1H13.0889C12.5911 1 12.3422 1 12.152 1.09688C11.9848 1.1821 11.8488 1.31809 11.7635 1.48534C11.6667 1.67549 11.6667 1.9244 11.6667 2.42222V5.44444" stroke="#2C1C5F" stroke-width="2" stroke-linecap="round" stroke-linejoin="round"/>
</svg>
