<svg width="19" height="15" viewBox="0 0 19 15" fill="none" xmlns="http://www.w3.org/2000/svg">
<path d="M12.8767 0.247871V0.244629H13.7207L14.029 0.306221C14.2346 0.346207 14.4213 0.398609 14.589 0.463442C14.7567 0.528276 14.9191 0.603921 15.0759 0.69036C15.2328 0.7768 15.3751 0.864876 15.5028 0.954557C15.6294 1.04317 15.743 1.13718 15.8437 1.23658C15.9432 1.33708 16.0985 1.36301 16.3095 1.31438C16.5205 1.26576 16.7477 1.19822 16.9912 1.11178C17.2346 1.02534 17.4754 0.928089 17.7135 0.820027C17.9515 0.711966 18.0965 0.643356 18.1485 0.614181C18.1993 0.583936 18.2264 0.567727 18.2296 0.565555L18.2328 0.560693L18.2491 0.552589L18.2653 0.544484L18.2815 0.53638L18.2978 0.528276L18.301 0.523414L18.3059 0.520172L18.3108 0.51693L18.314 0.512068L18.3302 0.507205L18.3465 0.503963L18.3432 0.528276L18.3383 0.552589L18.3302 0.576901L18.3221 0.601214L18.314 0.617422L18.3059 0.633631L18.2978 0.657943C18.2924 0.674152 18.287 0.695758 18.2815 0.722777C18.2761 0.749796 18.2247 0.857842 18.1273 1.04695C18.03 1.23605 17.9082 1.42784 17.7621 1.62234C17.6161 1.81684 17.4851 1.96379 17.3694 2.06321C17.2525 2.1637 17.1751 2.23394 17.1373 2.27392C17.0994 2.31498 17.0534 2.35279 16.9993 2.38738L16.9181 2.44087L16.9019 2.44897L16.8857 2.45708L16.8824 2.46194L16.8776 2.46518L16.8727 2.46842L16.8694 2.47328L16.8532 2.48139L16.837 2.48949L16.8338 2.49436L16.8289 2.4976L16.824 2.50084L16.8208 2.5057L16.8175 2.51056L16.8126 2.51381L16.8078 2.51705L16.8045 2.52191H16.8857L17.3401 2.42466C17.6431 2.35983 17.9326 2.28149 18.2085 2.18964L18.6467 2.04376L18.6954 2.02755L18.7198 2.01945L18.736 2.01135L18.7522 2.00324L18.7685 1.99514L18.7847 1.98703L18.8171 1.98217L18.8496 1.97893V2.01135L18.8415 2.01459L18.8334 2.01945L18.8301 2.02431L18.8253 2.02755L18.8204 2.0308L18.8171 2.03566L18.8139 2.04052L18.809 2.04376L18.8042 2.047L18.8009 2.05187L18.7977 2.05673L18.7928 2.05997L18.7847 2.07618L18.7766 2.09239L18.7717 2.09563C18.7695 2.09887 18.7008 2.19071 18.5656 2.37117C18.4303 2.55271 18.3573 2.64454 18.3465 2.64671C18.3356 2.64996 18.3205 2.66617 18.301 2.69534C18.2826 2.72558 18.1679 2.84608 17.9569 3.05679C17.7459 3.2675 17.5393 3.45496 17.3369 3.61922C17.1335 3.78455 17.0307 3.98769 17.0285 4.22866C17.0253 4.46854 17.0128 4.73977 16.9912 5.04232C16.9695 5.34488 16.929 5.67174 16.8694 6.02293C16.8099 6.37411 16.718 6.77122 16.5935 7.21424C16.4691 7.65727 16.3176 8.0895 16.1391 8.51092C15.9605 8.93234 15.7739 9.31053 15.5791 9.64551C15.3843 9.98048 15.2058 10.2641 15.0435 10.4964C14.8812 10.7288 14.7162 10.9476 14.5484 11.1529C14.3807 11.3582 14.1687 11.5894 13.9122 11.8466C13.6547 12.1027 13.514 12.2432 13.4902 12.268C13.4653 12.2918 13.3593 12.3804 13.1721 12.5338C12.986 12.6884 12.7858 12.8429 12.5715 12.9974C12.3584 13.1508 12.1625 13.2789 11.984 13.3815C11.8054 13.4842 11.5901 13.6014 11.338 13.7333C11.087 13.8662 10.8153 13.9894 10.5232 14.1028C10.231 14.2163 9.92265 14.3216 9.59803 14.4189C9.27341 14.5161 8.95962 14.5918 8.65664 14.6458C8.35368 14.6998 8.01012 14.7458 7.62598 14.7836L7.04979 14.8403V14.8484H5.99479V14.8403L5.85682 14.8322C5.76486 14.8268 5.68911 14.8214 5.62959 14.816C5.57009 14.8106 5.34555 14.7809 4.95601 14.7268C4.56647 14.6728 4.2608 14.6188 4.03897 14.5648C3.81716 14.5107 3.48712 14.4081 3.04889 14.2568C2.61066 14.1055 2.23572 13.9526 1.92409 13.7981C1.61355 13.6447 1.41878 13.5474 1.33978 13.5063C1.26187 13.4664 1.17423 13.4167 1.07684 13.3572L0.930764 13.2681L0.927534 13.2632L0.922648 13.26L0.917779 13.2567L0.914533 13.2519L0.898302 13.2438L0.882071 13.2357L0.878841 13.2308L0.873956 13.2276L0.869086 13.2243L0.86584 13.2195L0.86261 13.2146L0.857725 13.2114H0.849609V13.1789L0.86584 13.1822L0.882071 13.187L0.95511 13.1951C1.0038 13.2005 1.13636 13.2086 1.35277 13.2195C1.56919 13.2303 1.79911 13.2303 2.04258 13.2195C2.28604 13.2086 2.53492 13.1843 2.78919 13.1465C3.04348 13.1087 3.34375 13.0439 3.69001 12.952C4.03627 12.8602 4.3544 12.751 4.6444 12.6246C4.9333 12.4971 5.13888 12.402 5.26117 12.3393C5.38235 12.2778 5.56738 12.1632 5.81625 11.9957L6.18956 11.7445L6.1928 11.7396L6.19767 11.7364L6.20256 11.7331L6.20579 11.7283L6.20903 11.7234L6.2139 11.7202L6.21879 11.7169L6.22202 11.7121L6.23825 11.7072L6.25448 11.704L6.25772 11.6878L6.26259 11.6716L6.26748 11.6683L6.27071 11.6635L6.14086 11.6553C6.0543 11.65 5.97044 11.6445 5.88928 11.6391C5.80813 11.6337 5.68099 11.6094 5.50786 11.5662C5.33474 11.523 5.14809 11.4581 4.9479 11.3717C4.74772 11.2853 4.55295 11.1826 4.36359 11.0637C4.17424 10.9449 4.03735 10.846 3.95295 10.7671C3.86963 10.6893 3.76142 10.5791 3.62833 10.4365C3.49632 10.2928 3.38162 10.1453 3.28424 9.99399C3.18685 9.84271 3.0938 9.66818 3.00508 9.47046L2.87035 9.17546L2.86223 9.15115L2.85412 9.12684L2.84925 9.11063L2.846 9.09442L2.87035 9.09766L2.8947 9.10252L3.07323 9.12684C3.19227 9.14305 3.37893 9.14844 3.6332 9.14305C3.88749 9.13765 4.06332 9.12684 4.1607 9.11063C4.25809 9.09442 4.3176 9.08361 4.33924 9.07821L4.3717 9.07011L4.41228 9.062L4.45286 9.0539L4.4561 9.04904L4.46097 9.04579L4.46586 9.04255L4.46909 9.03769L4.43662 9.02959L4.40416 9.02148L4.3717 9.01338L4.33924 9.00527L4.30678 8.99717C4.28514 8.99177 4.24728 8.98096 4.19316 8.96475C4.13906 8.94854 3.99299 8.88911 3.75493 8.78646C3.51689 8.68381 3.32752 8.58385 3.18685 8.4866C3.04583 8.38907 2.91137 8.28241 2.78433 8.1673C2.65772 8.0506 2.51869 7.90039 2.36719 7.71671C2.21571 7.53302 2.08046 7.3196 1.96142 7.07647C1.8424 6.83335 1.75313 6.60103 1.69361 6.37951C1.63433 6.15929 1.59522 5.93415 1.57677 5.70686L1.54754 5.36649L1.56377 5.36973L1.58 5.37459L1.59623 5.38269L1.61246 5.3908L1.62869 5.3989L1.64492 5.40701L1.8965 5.52047C2.06423 5.59611 2.27252 5.66094 2.52139 5.71497C2.77027 5.76899 2.91904 5.79872 2.96773 5.80411L3.04077 5.81222H3.18685L3.18362 5.80735L3.17873 5.80411L3.17387 5.80087L3.17062 5.79601L3.16739 5.79115L3.1625 5.7879L3.15763 5.78466L3.15439 5.7798L3.13816 5.7717L3.12193 5.76359L3.1187 5.75873L3.11381 5.75549L3.10894 5.75225L3.1057 5.74738L3.08947 5.73928L3.07323 5.73117L3.07 5.72631C3.06676 5.72414 3.02022 5.68957 2.9304 5.62258C2.84167 5.5545 2.74862 5.46644 2.65123 5.35838C2.55385 5.25032 2.45646 5.13686 2.35908 5.01801C2.26151 4.89888 2.17461 4.77142 2.09938 4.63711C2.02365 4.50204 1.94357 4.33022 1.85917 4.12168C1.77585 3.91421 1.71255 3.70512 1.66927 3.49441C1.626 3.28371 1.60165 3.0757 1.59623 2.87039C1.59082 2.66508 1.59623 2.48949 1.61246 2.34362C1.62869 2.19774 1.66115 2.03295 1.70984 1.84926C1.75854 1.66557 1.82888 1.47107 1.92084 1.26576L2.05881 0.957799L2.06692 0.933486L2.07504 0.909174L2.07992 0.905932L2.08315 0.901069L2.0864 0.896207L2.09127 0.892965L2.09615 0.896207L2.09938 0.901069L2.10263 0.905932L2.1075 0.909174L2.11238 0.912415L2.11561 0.917278L2.11886 0.92214L2.12373 0.925382L2.13185 0.94159L2.13996 0.957799L2.14485 0.961041L2.14808 0.965903L2.36719 1.20903C2.51327 1.37111 2.6864 1.55211 2.88658 1.75201C3.08677 1.95191 3.19768 2.05564 3.21931 2.06321C3.24096 2.07185 3.268 2.0967 3.30047 2.13777C3.33293 2.17776 3.44114 2.27339 3.62508 2.42466C3.80904 2.57593 4.0498 2.75153 4.34736 2.95143C4.64493 3.15133 4.97495 3.34854 5.33744 3.54304C5.69994 3.73754 6.08948 3.91313 6.50606 4.06981C6.92265 4.2265 7.21481 4.32915 7.38252 4.37777C7.55025 4.4264 7.83699 4.48852 8.24276 4.56417C8.64853 4.63981 8.95422 4.68844 9.1598 4.71005C9.36539 4.73165 9.50607 4.74408 9.5818 4.74732L9.69542 4.75057L9.69219 4.72625L9.6873 4.70194L9.65484 4.49934C9.6332 4.36427 9.62238 4.17517 9.62238 3.93204C9.62238 3.68892 9.64132 3.4647 9.67919 3.25939C9.71707 3.05408 9.77388 2.84608 9.84961 2.63537C9.92536 2.42466 9.99949 2.25554 10.072 2.12805C10.1456 2.00162 10.2419 1.85737 10.3609 1.69528C10.4799 1.5332 10.6341 1.36572 10.8235 1.19282C11.0128 1.01993 11.2292 0.865946 11.4727 0.730881C11.7162 0.595816 11.9407 0.493152 12.1463 0.422921C12.3519 0.35269 12.525 0.306756 12.6657 0.28515C12.8063 0.263544 12.8767 0.251112 12.8767 0.247871Z" fill="#2C1C5F"/>
</svg>
