<svg width="18" height="18" viewBox="0 0 18 18" fill="none" xmlns="http://www.w3.org/2000/svg">
<path d="M6.77778 6.30252C6.77778 5.87826 6.77778 5.66614 6.86644 5.54771C6.9437 5.44451 7.06197 5.37994 7.19056 5.37076C7.33812 5.36022 7.51655 5.47493 7.87343 5.70435L12.0695 8.40183C12.3792 8.60091 12.534 8.70044 12.5875 8.82701C12.6342 8.9376 12.6342 9.0624 12.5875 9.17299C12.534 9.29956 12.3792 9.39909 12.0695 9.59817L7.87343 12.2957C7.51656 12.5251 7.33812 12.6398 7.19056 12.6292C7.06197 12.6201 6.9437 12.5555 6.86644 12.4523C6.77778 12.3339 6.77778 12.1217 6.77778 11.6975V6.30252Z" stroke="#2C1C5F" stroke-width="2" stroke-linecap="round" stroke-linejoin="round"/>
<path d="M1 5.26667C1 3.77319 1 3.02646 1.29065 2.45603C1.54631 1.95426 1.95426 1.54631 2.45603 1.29065C3.02646 1 3.77319 1 5.26667 1H12.7333C14.2268 1 14.9735 1 15.544 1.29065C16.0457 1.54631 16.4537 1.95426 16.7094 2.45603C17 3.02646 17 3.77319 17 5.26667V12.7333C17 14.2268 17 14.9735 16.7094 15.544C16.4537 16.0457 16.0457 16.4537 15.544 16.7094C14.9735 17 14.2268 17 12.7333 17H5.26667C3.77319 17 3.02646 17 2.45603 16.7094C1.95426 16.4537 1.54631 16.0457 1.29065 15.544C1 14.9735 1 14.2268 1 12.7333V5.26667Z" stroke="#2C1C5F" stroke-width="2" stroke-linecap="round" stroke-linejoin="round"/>
</svg>
