<svg width="21" height="15" viewBox="0 0 21 15" fill="none" xmlns="http://www.w3.org/2000/svg">
<path d="M11.2879 14.5261L7.22568 14.4501C5.91044 14.4237 4.59191 14.4765 3.30246 14.2024C1.34089 13.7929 1.20193 11.785 1.05652 10.1008C0.856153 7.73292 0.933719 5.3221 1.31183 2.97403C1.52528 1.65651 2.36532 0.870341 3.6644 0.78479C8.04975 0.474315 12.4643 0.51111 16.8399 0.655958C17.302 0.669236 17.7673 0.741812 18.223 0.824423C20.4723 1.22734 20.5271 3.50274 20.673 5.41819C20.8184 7.35342 20.757 9.29857 20.479 11.2206C20.2561 12.812 19.8295 14.1466 18.0291 14.2754C15.7733 14.4439 13.5693 14.5795 11.3072 14.5363C11.3073 14.5261 11.2943 14.5261 11.2879 14.5261ZM8.8997 10.4971C10.5996 9.49968 12.2671 8.51889 13.9573 7.52817C12.2542 6.53076 10.5899 5.54997 8.8997 4.55924V10.4971Z" fill="#2C1C5F"/>
</svg>
